<?xml version="1.0" standalone="no"?>
<!DOCTYPE svg PUBLIC "-//W3C//DTD SVG 20010904//EN"
 "http://www.w3.org/TR/2001/REC-SVG-20010904/DTD/svg10.dtd">
<svg version="1.0" xmlns="http://www.w3.org/2000/svg"
 width="160.000000pt" height="160.000000pt" viewBox="0 0 160.000000 160.000000"
 preserveAspectRatio="xMidYMid meet">
<metadata>
Created by potrace 1.14, written by Peter Selinger 2001-2017
</metadata>
<g transform="translate(0.000000,160.000000) scale(0.100000,-0.100000)"
fill="#000000" stroke="none">
<path d="M771 1510 c-150 -31 -301 -112 -412 -220 -84 -81 -174 -248 -194
-357 -15 -89 -18 -112 -18 -153 0 -25 3 -72 7 -105 5 -33 8 -62 8 -65 0 -3 11
-36 25 -73 37 -104 89 -185 168 -263 123 -122 263 -183 435 -190 52 -2 115 2
140 7 25 6 56 13 70 15 14 3 58 21 98 40 144 69 265 223 307 389 25 101 25
161 2 287 -12 63 -71 164 -131 224 -58 57 -159 118 -219 130 -69 14 -98 17
-158 17 -140 -1 -262 -61 -354 -174 -123 -152 -117 -403 12 -533 169 -171 452
-142 554 55 50 98 36 221 -34 291 -63 63 -186 90 -254 55 -57 -30 -93 -104
-79 -161 6 -25 49 -54 74 -50 6 1 19 2 27 3 9 0 25 17 36 36 26 43 42 44 80 6
24 -25 28 -36 24 -63 -18 -104 -134 -158 -243 -113 -147 62 -176 261 -56 394
57 64 126 94 219 96 300 7 460 -305 298 -585 -51 -88 -164 -176 -251 -194 -15
-4 -38 -9 -52 -12 -30 -6 -159 -6 -169 1 -4 2 -23 7 -42 10 -110 18 -266 143
-322 256 -33 68 -60 156 -52 169 3 5 2 11 -3 14 -14 8 -6 156 11 223 53 204
213 363 427 424 36 11 75 19 87 19 73 0 118 77 75 130 -20 25 -76 33 -141 20z"/>
</g>
</svg>
